<?xml version="1.0" standalone="no"?>
<!DOCTYPE svg PUBLIC "-//W3C//DTD SVG 1.1//EN" "http://www.w3.org/Graphics/SVG/1.1/DTD/svg11.dtd" >
<svg xmlns="http://www.w3.org/2000/svg">
<metadata>
Created by FontForge 20120731 at Fri May 20 10:31:17 2016
 By admin
</metadata>
<defs>
<font id="iconfont" horiz-adv-x="1024" >
  <font-face 
    font-family="iconfont"
    font-weight="500"
    font-stretch="normal"
    units-per-em="1024"
    panose-1="2 0 6 3 0 0 0 0 0 0"
    ascent="896"
    descent="-128"
    x-height="792"
    bbox="0 -223 1057 896"
    underline-thickness="50"
    underline-position="-100"
    unicode-range="U+0078-E649"
  />
<missing-glyph horiz-adv-x="374" 
d="M34 0v682h272v-682h-272zM68 34h204v614h-204v-614z" />
    <glyph glyph-name=".notdef" horiz-adv-x="374" 
d="M34 0v682h272v-682h-272zM68 34h204v614h-204v-614z" />
    <glyph glyph-name=".null" horiz-adv-x="0" 
 />
    <glyph glyph-name="nonmarkingreturn" horiz-adv-x="341" 
 />
    <glyph glyph-name="x" unicode="x" horiz-adv-x="1001" 
d="M281 543q-27 -1 -53 -1h-83q-18 0 -36.5 -6t-32.5 -18.5t-23 -32t-9 -45.5v-76h912v41q0 16 -0.5 30t-0.5 18q0 13 -5 29t-17 29.5t-31.5 22.5t-49.5 9h-133v-97h-438v97zM955 310v-52q0 -23 0.5 -52t0.5 -58t-10.5 -47.5t-26 -30t-33 -16t-31.5 -4.5q-14 -1 -29.5 -0.5
t-29.5 0.5h-32l-45 128h-439l-44 -128h-29h-34q-20 0 -45 1q-25 0 -41 9.5t-25.5 23t-13.5 29.5t-4 30v167h911zM163 247q-12 0 -21 -8.5t-9 -21.5t9 -21.5t21 -8.5q13 0 22 8.5t9 21.5t-9 21.5t-22 8.5zM316 123q-8 -26 -14 -48q-5 -19 -10.5 -37t-7.5 -25t-3 -15t1 -14.5
t9.5 -10.5t21.5 -4h37h67h81h80h64h36q23 0 34 12t2 38q-5 13 -9.5 30.5t-9.5 34.5q-5 19 -11 39h-368zM336 498v228q0 11 2.5 23t10 21.5t20.5 15.5t34 6h188q31 0 51.5 -14.5t20.5 -52.5v-227h-327z" />
    <glyph glyph-name="uniE600" unicode="&#xe600;" horiz-adv-x="1000" 
d="M218 275h79v-27h-79v27zM502 300q11 0 21 -5q38 46 82 79q11 -11 23 -22q-34 -50 -79 -90q1 -5 1 -10q0 -19 -14 -33t-33.5 -14t-33.5 14t-14 33q0 15 8 27q-53 72 -89 153q4 3 12 7t11 6q55 -73 91 -147q7 2 14 2zM434 559v-81l224 128l-223 130l-1 -83
q-129 -19 -221 -112q-56 -56 -86 -128.5t-30 -152t30 -152t86 -128.5t128.5 -86t151.5 -30t151.5 30t128.5 86q68 68 97 159l5 14l-89 27l-4 -14q-23 -69 -74 -120q-89 -89 -215 -89t-215 89t-89 214.5t89 214.5q66 66 156 84zM793 306q-4 29 -14 57l-5 14l87 32l5 -14
q14 -40 20 -82l2 -16l-93 -4zM792 205q5 27 5 56v5l-1 14l93 4v-15v-8q0 -41 -8 -80l-3 -15l-89 26zM763 400q-12 24 -29 45l-8 11l73 58l9 -12q23 -31 41 -66l7 -15l-87 -32zM717 466l-9 9q-21 21 -44 37l-13 9l58 73l11 -8q28 -20 53 -45l6 -6l11 -12zM493 -9v79h27v-79
h-27zM692 70l-56 55l20 20l55 -56zM297 76l56 56l19 -19l-56 -56zM303 471l56 -55l-19 -20l-56 56zM699 465l-20 19l-55 -56l19 -19zM777 266h-79v27h79v-27z" />
    <glyph glyph-name="uniE601" unicode="&#xe601;" 
d="M512 552q-2 0 -17 -1v-105q1 0 7.5 1t9.5 1q80 0 136 -56t56 -135q0 -24 -8 -53h107q5 28 5 53q0 122 -86.5 208.5t-209.5 86.5zM512 761q-3 0 -9 -0.5t-8 -0.5v-104q1 0 7.5 0.5t9.5 0.5q109 0 201 -54t145.5 -146t53.5 -200q0 -24 -3 -53h105q3 27 3 53
q0 102 -40 195.5t-107.5 161t-161 107.5t-196.5 40zM696 51q-3 1 -17 6.5t-18 7t-16.5 5.5t-17.5 4.5t-16.5 2.5t-18.5 0.5t-17.5 -3.5t-18.5 -6t-17.5 -10.5t-19.5 -15.5q-46 -44 -93 -19q-23 12 -106.5 102t-98.5 126q-5 11 -7.5 19.5t-3.5 15.5t-1.5 11.5t1.5 9.5
t2.5 6.5t4 7t4.5 6.5q1 2 11 12t18 21.5t15.5 30t6 46t-13.5 60.5q-11 33 -17.5 49t-19 38.5t-23.5 28t-29 7.5t-39 -11.5t-50 -40.5t-64 -71q-8 -9 -8 -37.5t3.5 -52t4.5 -23.5q2 -9 7 -23t25.5 -57.5t45.5 -86t69 -99.5t95 -105.5t124.5 -97.5t155.5 -82q23 -11 59.5 -6.5
t73.5 17t72.5 40.5t55.5 63q20 34 -3.5 54.5t-99.5 49.5z" />
    <glyph glyph-name="uniE602" unicode="&#xe602;" 
d="M613 160q-8 1 -13 16t-5.5 24t-0.5 15q6 6 15.5 17t28 44.5t23.5 66.5q16 0 27 20.5t9.5 46.5t-16.5 39q0 1 1.5 17.5t2.5 30t-1 36.5t-7 40.5t-17 38t-29.5 33.5t-46.5 22t-65.5 9t-65.5 -9t-46.5 -22t-29.5 -33.5t-17 -38t-7 -40.5t-1 -36.5t2.5 -30t1.5 -17.5
q-15 -13 -16.5 -39t9.5 -46.5t27 -20.5q6 -33 22.5 -65t30.5 -48l15 -15q-1 -52 -20 -55q-25 -4 -70.5 -23.5t-95 -48t-85.5 -69t-36 -78.5h382h381q0 38 -36 78.5t-85.5 69t-95 48t-70.5 23.5z" />
    <glyph glyph-name="uniE603" unicode="&#xe603;" 
d="M186 280h287v-287q0 -8 6 -14t14.5 -6t14.5 6t6 14v287h286q9 0 15 6t6 14.5t-6 14.5t-15 6h-286v286q0 9 -6 15t-14.5 6t-14.5 -6t-6 -15v-286h-287q-9 0 -15 -6t-6 -14.5t6 -14.5t15 -6z" />
    <glyph glyph-name="uniE604" unicode="&#xe604;" 
d="M512 656l114 -232l256 -37l-185 -180l44 -255l-229 120l-229 -120l44 255l-185 180l256 37z" />
    <glyph glyph-name="uniE605" unicode="&#xe605;" 
d="M887 642v53q0 34 -24.5 58.5t-59.5 24.5h-549q-35 0 -59.5 -24.5t-24.5 -58.5v-53h-15q-29 0 -49.5 -20.5t-20.5 -49.5v-117q0 -29 20.5 -49.5t49.5 -20.5h293v1h28q15 0 25.5 -10.5t10.5 -25.5v-118h-69v-409h171v409h-68v118q0 29 -20.5 49.5t-49.5 20.5h-42h-279
q-15 0 -25.5 10t-10.5 25v117q0 15 10.5 25.5t25.5 10.5h15v-53q0 -35 24.5 -59.5t59.5 -24.5h549q35 0 59.5 24.5t24.5 59.5v53h34v34h-34zM580 -143h-103v341h103v-341zM853 555q0 -21 -14.5 -35.5t-35.5 -14.5h-549q-21 0 -35.5 14.5t-14.5 35.5v140q0 20 14.5 34.5
t35.5 14.5h549q21 0 35.5 -14.5t14.5 -34.5v-140z" />
    <glyph glyph-name="uniE606" unicode="&#xe606;" 
d="M741 647h-463v55q0 5 3.5 8.5t8.5 3.5h439q5 0 8.5 -3.5t3.5 -8.5v-55zM741 86h-463v528h463v-528zM741 -100q0 -5 -3.5 -8.5t-8.5 -3.5h-439q-5 0 -8.5 3.5t-3.5 8.5v153h463v-153zM729 747h-439q-19 0 -32 -13.5t-13 -31.5v-802q0 -19 13 -32t32 -13h439q19 0 32 13
t13 32v802q0 18 -13 31.5t-32 13.5zM460 -13h99v-33h-99v33z" />
    <glyph glyph-name="uniE607" unicode="&#xe607;" 
d="M512.5 799q-101.5 0 -193.5 -39.5t-159 -106.5t-106.5 -159t-39.5 -193.5t39.5 -193.5t106.5 -158.5t159 -106t193.5 -39.5t193.5 39.5t158.5 106t106 158.5t39.5 193.5t-39.5 193.5t-106 159t-158.5 106.5t-193.5 39.5zM512 -157q-93 0 -177.5 36t-146 97.5t-98 146.5
t-36.5 178t36.5 177.5t98 146t146 98t177.5 36.5t178 -36.5t146.5 -98t97.5 -146t36 -177.5t-36 -178t-97.5 -146.5t-146.5 -97.5t-178 -36zM255 321h516v-40h-516v40z" />
    <glyph glyph-name="uniE608" unicode="&#xe608;" 
d="M512 736q-122 0 -225 -60t-163 -163t-60 -225t60 -225t163 -163t225 -60t225 60t163 163t60 225t-60 225t-163 163t-225 60zM512 -96q-159 0 -271.5 112.5t-112.5 271.5t112.5 271.5t271.5 112.5t271.5 -112.5t112.5 -271.5t-112.5 -271.5t-271.5 -112.5zM500 130
q-9 -11 -23.5 -11t-26.5 10l-109 97q-11 10 -13 24.5t8 24.5q9 10 23.5 10t25.5 -10l109 -96q11 -10 13 -24.5t-7 -24.5zM672 444q11 -8 14 -21t-5 -24l-174 -263q-7 -12 -20 -14.5t-24 4.5q-11 8 -14 21t5 24l174 264q7 11 20 13.5t24 -4.5z" />
    <glyph glyph-name="uniE609" unicode="&#xe609;" 
d="M512 736q-122 0 -225 -60t-163 -163t-60 -225t60 -225t163 -163t225 -60t225 60t163 163t60 225t-60 225t-163 163t-225 60zM512 -96q-159 0 -271.5 112.5t-112.5 271.5t112.5 271.5t271.5 112.5t271.5 -112.5t112.5 -271.5t-112.5 -271.5t-271.5 -112.5zM647 422
q9 -10 9 -23t-9 -23l-225 -222q-9 -9 -22.5 -9t-22.5 9q-9 10 -9 23t9 23l225 222q9 9 22.5 9t22.5 -9zM646 153q-10 -9 -23 -9t-23 9l-222 225q-9 9 -9 22.5t9 22.5q10 9 23 9t23 -9l222 -225q9 -9 9 -22.5t-9 -22.5z" />
    <glyph glyph-name="uniE60A" unicode="&#xe60a;" 
d="M613.5 603q-74.5 0 -127.5 -53t-53 -128q0 -51 26 -93.5t69 -65.5q-90 -28 -147 -104t-57 -173q0 -7 5 -12t12 -5t12 5t5 12q0 106 74.5 180.5t179.5 74.5q3 0 6 1q73 1 124.5 54t51.5 126q0 75 -53 128t-127.5 53zM613.5 276q-60.5 0 -103.5 43t-43 103.5t43 103
t103.5 42.5t103 -42.5t42.5 -103t-42.5 -103.5t-103 -43zM818 191q-5 5 -12 5t-12 -5t-5 -12.5t5 -12.5q74 -74 74 -180q0 -7 5 -12t12.5 -5t12.5 5t5 12q0 120 -85 205zM431 272v0q0 7 -5 12t-12 5q-47 0 -80.5 35.5t-33.5 85.5t33.5 85.5t80.5 35.5q7 0 12 5.5t5 12.5
t-5 12t-12 5q-62 0 -105 -45.5t-43 -110.5q0 -42 19.5 -77.5t53.5 -56.5q-71 -25 -115.5 -89.5t-44.5 -145.5q0 -7 5 -12t12 -5t12 5t5 12q0 88 59 150.5t142 62.5q7 0 12 5t5 13z" />
    <glyph glyph-name="uniE60B" unicode="&#xe60b;" 
d="M512 676q77 0 146 -29q68 -29 120 -81t81 -120q29 -69 29 -146t-29 -146q-29 -68 -81 -120t-120 -81q-69 -29 -146 -29t-146 29q-68 29 -120 81t-81 120q-29 69 -29 146t29 146q29 68 81 120t120 81q69 29 146 29zM512 748q-91 0 -174 -35.5t-143 -95.5t-95.5 -143
t-35.5 -174t35.5 -174t95.5 -143t143 -95.5t174 -35.5t174 35.5t143 95.5t95.5 143t35.5 174t-35.5 174t-95.5 143t-143 95.5t-174 35.5zM704 331h-162v225q0 13 -9 22t-21.5 9t-21.5 -9t-9 -22v-256q0 -12 9 -21t22 -9h192q12 0 21 9t9 21.5t-9 21.5t-21 9z" />
    <glyph glyph-name="uniE60C" unicode="&#xe60c;" 
d="M662 -97h-482q-44 0 -76 31.5t-32 76.5v573q0 45 32 76.5t76 31.5h482q45 0 76.5 -31.5t31.5 -76.5v-232q0 -11 -7.5 -18.5t-18.5 -7.5t-18.5 7.5t-7.5 18.5v232q0 23 -16.5 39t-39.5 16h-482q-22 0 -38.5 -16t-16.5 -39v-573q0 -23 16.5 -39t38.5 -16h482q23 0 39.5 16
t16.5 39q0 11 7.5 19t18.5 8t18.5 -8t7.5 -19q0 -45 -31.5 -76.5t-76.5 -31.5zM568 423h-293q-11 0 -19 7.5t-8 18.5t8 19t19 8h293q11 0 19 -8t8 -19t-8 -18.5t-19 -7.5zM568 285h-293q-11 0 -19 8t-8 19t8 18.5t19 7.5h293q11 0 19 -7.5t8 -18.5t-8 -19t-19 -8zM498 148
h-223q-11 0 -19 7.5t-8 18.5t8 19t19 8h223q11 0 19 -8t8 -19t-8 -18.5t-19 -7.5zM742 108q-9 0 -16 6l-104 85q-8 7 -9 18t6 19.5t17.5 9.5t19.5 -6l82 -68l168 212q7 9 18 10.5t19.5 -5.5t9.5 -18t-5 -19l-185 -234q-7 -9 -18 -10h-3z" />
    <glyph glyph-name="uniE60D" unicode="&#xe60d;" 
d="M512 -144q-90 0 -172.5 35t-142 94.5t-94.5 142t-35 172.5t35 172.5t94.5 142t142 94.5t172.5 35t172.5 -35t142 -94.5t94.5 -142t35 -172.5t-35 -172.5t-94.5 -142t-142 -94.5t-172.5 -35zM717 458q-11 7 -24 5.5t-23 -10.5l-212 -212q-6 -6 -14 -6t-14 6l-80 79
q-9 10 -22.5 11.5t-24.5 -6.5q-13 -9 -14.5 -25.5t10.5 -27.5l131 -131q6 -6 14 -6t14 6l264 263q12 11 10.5 27.5t-15.5 26.5z" />
    <glyph glyph-name="uniE60E" unicode="&#xe60e;" horiz-adv-x="1065" 
d="M48 -84h832q20 0 34 14t14 34v800q0 20 -14 34t-34 14h-832q-20 0 -34 -14t-14 -34v-800q0 -20 14 -34t34 -14zM32 764q0 7 4.5 11.5t11.5 4.5h832q7 0 11.5 -4.5t4.5 -11.5v-800q0 -7 -4.5 -11.5t-11.5 -4.5h-832q-7 0 -11.5 4.5t-4.5 11.5v800zM576 460q26 0 45 19
t19 45t-19 45t-45 19t-45 -19t-19 -45t19 -45t45 -19zM576 556q13 0 22.5 -9.5t9.5 -22.5t-9.5 -22.5t-22.5 -9.5t-22.5 9.5t-9.5 22.5t9.5 22.5t22.5 9.5zM112 76h704q7 0 11.5 4.5t4.5 11.5v608q0 7 -4.5 11.5t-11.5 4.5h-704q-7 0 -11.5 -4.5t-4.5 -11.5v-608
q0 -7 4.5 -11.5t11.5 -4.5zM128 108v148q0 1 1 1t1 1l164 164q6 6 15.5 6t15.5 -6l241 -241q4 -5 11 -5q6 0 11 5l124 117q6 7 15 7t15 -6l58 -66v-125h-672zM800 684v-403l-35 40q-15 16 -38 16q-22 0 -38 -16l-112 -107l-229 230q-16 15 -38.5 15t-38.5 -15l-143 -143v383
h672zM144 -119q-7 0 -11.5 -4.5t-4.5 -11.5v-29q0 -20 14 -34t34 -14h832q20 0 34 14t14 34v832q0 20 -14 34t-34 14h-29q-7 0 -11.5 -4.5t-4.5 -11.5t4.5 -11.5t11.5 -4.5h29q7 0 11.5 -4.5t4.5 -11.5v-832q0 -7 -4.5 -11.5t-11.5 -4.5h-832q-7 0 -11.5 4.5t-4.5 11.5v29
q0 7 -4.5 11.5t-11.5 4.5z" />
    <glyph glyph-name="uniE60F" unicode="&#xe60f;" 
d="M907 768q5 6 4 14t-9 12q-55 26 -114.5 15.5t-102.5 -53.5q-41 -41 -54 -100t6 -112l-368 -369q-31 11 -64 11q-86 0 -146 -60q-42 -43 -53.5 -101.5t12.5 -113.5q4 -8 12 -9.5t14 4.5l112 112q5 5 12.5 6t12.5 -4l48 -50q12 -13 -1 -26l-111 -112q-5 -5 -4 -13.5
t9 -11.5q40 -19 83 -19q77 0 134 57q41 41 54 99.5t-6 112.5l368 368q30 -10 64 -10q86 0 146 59q42 43 53.5 102t-12.5 114q-4 8 -12 9.5t-14 -4.5l-112 -112q-5 -6 -12.5 -5.5t-12.5 5.5l-48 48q-13 13 0 25zM772 608l48 -48q14 -14 35.5 -14t35.5 14l93 94
q12 -41 0.5 -83.5t-42.5 -73.5q-50 -51 -123 -51q-33 0 -61 13q-10 4 -18 -4l-383 -383q-8 -8 -3 -17q19 -46 8.5 -99t-46.5 -89q-31 -31 -74 -42t-85 2l94 95q15 15 15.5 35t-14.5 35l-48 50q-14 14 -35 13.5t-36 -15.5l-93 -94q-12 42 -0.5 84t42.5 74q50 50 123 50
q33 0 61 -12q10 -5 18 3l383 383q8 8 3 18q-19 46 -8.5 99t46.5 88q31 32 74 42.5t85 -2.5l-95 -94q-15 -15 -15 -35.5t15 -35.5zM934 -168q-5 -5 -13 -5t-14 6l-320 319q-11 11 -22.5 0t0.5 -23l320 -319q15 -15 36 -15t36 15l45 48q15 15 15 35t-15 35l-319 320
q-11 11 -22.5 -0.5t-0.5 -22.5l320 -319q12 -13 0 -26zM188 711l-96 96q-11 11 -22 0l-64 -64q-12 -12 0 -23l96 -96q4 -4 10.5 -4t11.5 4l21 21l244 -244q5 -5 11.5 -5t11.5 5q11 11 0 22l-245 244l21 21q11 11 0 23zM113 658l-73 73l41 42l73 -74z" />
    <glyph glyph-name="uniE610" unicode="&#xe610;" 
d="M512 -212q104 0 199 40.5t163.5 109t109 163.5t40.5 199t-40.5 199t-109 163.5t-163.5 109t-199 40.5t-199 -40.5t-163.5 -109t-109 -163.5t-40.5 -199t40.5 -199t109 -163.5t163.5 -109t199 -40.5zM512 748q91 0 174 -35.5t143 -95.5t95.5 -143t35.5 -174t-35.5 -174
t-95.5 -143t-143 -95.5t-174 -35.5t-174 35.5t-143 95.5t-95.5 143t-35.5 174q0 185 131.5 316.5t316.5 131.5zM512 612q77 0 131 -53.5t54 -129.5t-54 -130t-131 -54t-131 54t-54 130t54 129.5t131 53.5zM512 298q55 0 93.5 38.5t38.5 92.5t-38.5 92.5t-93.5 38.5
t-93.5 -38.5t-38.5 -93t38.5 -92.5t93.5 -38zM512 298q109 0 186.5 -77t77.5 -185h-53q0 87 -62 148t-149 61t-149 -61t-62 -148h-53q0 108 77.5 185t186.5 77zM512 298z" />
    <glyph glyph-name="uniE611" unicode="&#xe611;" 
d="M722 -192q-24 0 -41 17l-430 430q-17 18 -17 42t17 41l430 431q17 17 41.5 17t41.5 -17.5t17 -41.5t-17 -41l-389 -389l389 -389q17 -17 17 -41.5t-17 -41.5t-42 -17z" />
    <glyph glyph-name="uniE612" unicode="&#xe612;" 
d="M512 -139q-89 0 -171 35q-79 33 -139.5 93.5t-93.5 139.5q-35 82 -35 171t35 171q33 79 93.5 139.5t139.5 93.5q82 35 171 35t171 -35q79 -33 139.5 -93.5t93.5 -139.5q35 -82 35 -171t-35 -171q-33 -79 -93.5 -139.5t-139.5 -93.5q-82 -35 -171 -35zM512 708
q-111 0 -205 -54.5t-148.5 -148.5t-54.5 -205t54.5 -205t148.5 -148.5t205 -54.5t205 54.5t148.5 148.5t54.5 205t-54.5 205t-148.5 148.5t-205 54.5zM512 163q-14 0 -23.5 9.5t-9.5 23.5v343q0 14 9.5 23.5t23.5 9.5t23.5 -9.5t9.5 -23.5v-343q0 -14 -9.5 -23.5t-23.5 -9.5
zM512 85zM472 84.5q0 16.5 12 28t28 11.5t28 -11.5t12 -28t-12 -28t-28 -11.5t-28 11.5t-12 28z" />
    <glyph glyph-name="uniE613" unicode="&#xe613;" 
d="M279 433h6h-6zM710 744h-198h-198q-18 0 -30 -12t-12 -29v-200q0 -19 16 -31l129 -95q20 -14 16 -38l-42 -311q-2 -10 -3 -19q-3 -16 -3 -32q2 -50 38.5 -85.5t87.5 -35.5h1q52 0 89 37t37 89q0 13 -3 27q0 9 -2 19l-43 311q-3 24 16 38l130 95q16 12 16 31v200
q0 17 -12 29t-30 12zM314 713h198h198q5 0 8 -3t3 -7v-129h-418v129q0 4 3 7t8 3zM718 497l-130 -95q-34 -25 -28 -67l42 -312v-1l1 -1l2 -14v-3v-2q2 -10 2 -20q0 -39 -28 -67t-67 -28h-1q-38 0 -65.5 26.5t-29.5 64.5q0 12 2 24l1 2v3q0 7 2 14v1v1l43 312q6 42 -29 67
l-129 95q-3 2 -3 6v41h418v-41q0 -4 -3 -6zM512 27q-16 0 -27 -11t-11 -27t11 -27t27 -11t27 11t11 27t-11 27t-27 11zM512 -19q-8 0 -8 8t8 8t8 -8t-8 -8z" />
    <glyph glyph-name="uniE614" unicode="&#xe614;" 
d="M400 706q82 0 140 -64t58 -154q0 -60 -30 -111.5t-71 -78.5q-27 -18 -40 -32t-13 -35h30q0 9 7.5 17.5t32.5 24.5q45 30 79.5 89t34.5 126q0 103 -67 175.5t-161.5 72.5t-161 -72.5t-66.5 -175.5q0 -72 34.5 -132t94.5 -91q8 -4 9 -5q29 -16 29 -38q0 -21 -22 -28
q-4 -1 -13 -4q-13 -3 -18 -5l-2 -1q-107 -38 -171 -120t-64 -182v-15h315v29h-285q5 88 64 158t154 103l9 3q2 0 5 1l2 1q7 2 12 3q44 14 44 57q0 39 -46 65l-8 4q-52 27 -82.5 80.5t-30.5 116.5q0 90 58 154t140 64zM965 172l-181 26l-81 164l-81 -164l-181 -26l131 -128
l-31 -180l162 85l162 -85l-31 180zM703 -17l-122 -64l23 136l-99 96l137 20l61 124l61 -124l137 -20l-99 -96l23 -136z" />
    <glyph glyph-name="uniE615" unicode="&#xe615;" 
d="M916 -44h-812q-17 0 -29 11.5t-12 28.5v617q0 17 12 29t29 12h812q17 0 29 -12t12 -29v-617q0 -17 -12 -28.5t-29 -11.5zM104 625q-5 0 -9 -3.5t-4 -8.5v-617q0 -5 4 -8.5t9 -3.5h812q5 0 9 3.5t4 8.5v617q0 5 -4 8.5t-9 3.5h-812zM510 229l-441 346l17 22l424 -332
l424 332l18 -22zM96 -33l-21 20l289 289l21 -20zM663 277l290 -290l-20 -20l-290 290z" />
    <glyph glyph-name="uniE616" unicode="&#xe616;" 
d="M832 684h-640q-53 0 -90.5 -37.5t-37.5 -90.5v-384q0 -53 37.5 -90.5t90.5 -37.5l-64 -128l320 128h384q53 0 90.5 37.5t37.5 90.5v384q0 53 -37.5 90.5t-90.5 37.5zM255.5 301q-26.5 0 -45 19t-18.5 45.5t18.5 45t45 18.5t45.5 -18.5t19 -45t-19 -45.5t-45.5 -19z
M511.5 301q-26.5 0 -45 19t-18.5 45.5t18.5 45t45 18.5t45.5 -18.5t19 -45t-19 -45.5t-45.5 -19zM767.5 301q-26.5 0 -45 19t-18.5 45.5t18.5 45t45 18.5t45 -18.5t18.5 -45t-18.5 -45.5t-45 -19z" />
    <glyph glyph-name="uniE617" unicode="&#xe617;" 
d="M775 358l-436 437q-18 17 -42.5 17t-41.5 -17.5t-17 -42t17 -41.5l415 -416l-405 -406q-17 -16 -17 -40t16.5 -40.5t40.5 -16.5t41 16l420 421q22 22 15 52q13 17 11.5 39t-17.5 38z" />
    <glyph glyph-name="uniE618" unicode="&#xe618;" 
d="M512 759q96 0 183 -37.5t150 -100.5t100.5 -150t37.5 -183t-37.5 -183t-100.5 -150t-150 -100.5t-183 -37.5t-183 37.5t-150 100.5t-100.5 150t-37.5 183t37.5 183t100.5 150t150 100.5t183 37.5zM512 774q-99 0 -189 -38.5t-155 -103.5t-103.5 -155t-38.5 -189
t38.5 -189t103.5 -155t155 -103.5t189 -38.5t189 38.5t155 103.5t103.5 155t38.5 189t-38.5 189t-103.5 155t-155 103.5t-189 38.5zM512 519l75 -152l168 -24l-121 -119l28 -167l-150 79l-150 -79l28 167l-121 119l168 24zM512 550q-19 0 -28 -17l-68 -138l-152 -22
q-18 -3 -24 -21t7 -31l110 -108l-26 -151q-3 -19 13 -30q8 -6 18 -6q7 0 14 4l136 71l136 -71q7 -4 14 -4q10 0 18 6q16 11 13 30l-26 151l110 108q13 13 7 31t-24 21l-152 22l-68 138q-9 17 -28 17z" />
    <glyph glyph-name="uniE619" unicode="&#xe619;" 
d="M480 396q0 13 9.5 22.5t22.5 9.5t22.5 -9.5t9.5 -22.5v-320q0 -13 -9.5 -22.5t-22.5 -9.5t-22.5 9.5t-9.5 22.5v320zM640 396q0 13 9.5 22.5t22.5 9.5t22.5 -9.5t9.5 -22.5v-320q0 -13 -9.5 -22.5t-22.5 -9.5t-22.5 9.5t-9.5 22.5v320zM320 396q0 13 9.5 22.5t22.5 9.5
t22.5 -9.5t9.5 -22.5v-320q0 -13 -9.5 -22.5t-22.5 -9.5t-22.5 9.5t-9.5 22.5v320zM896 556h-181l-63 109q-6 15 -22 18q-5 1 -9 1h-217q-21 2 -31 -16l-65 -112h-180q-13 0 -22.5 -9.5t-9.5 -22.5t9.5 -22.5t22.5 -9.5h64v-578q0 -27 18.5 -45.5t45.5 -18.5h512
q27 0 45.5 18.5t18.5 45.5v578h64q13 0 22.5 9.5t9.5 22.5t-9.5 22.5t-22.5 9.5zM419 620h185l37 -64h-259zM768 -52q0 -13 -9.5 -22.5t-22.5 -9.5h-448q-13 0 -22.5 9.5t-9.5 22.5v544h512v-544z" />
    <glyph glyph-name="uniE61A" unicode="&#xe61a;" 
d="M509.5 486q-94.5 0 -161.5 -66.5t-67 -160.5t67 -160.5t161.5 -66.5t161.5 66.5t67 160.5t-67 160.5t-161.5 66.5zM640 148q-46 -54 -117 -59t-125 40.5t-59 116t41 124t116.5 59t124.5 -40.5t59.5 -116t-40.5 -124zM510 373q-48 0 -81 -33.5t-33 -80.5q0 -6 4 -10t10 -4
t10 4t4 10q0 35 25 60t61 25q6 0 10 4t4 10t-4 10.5t-10 4.5zM895 513l-124 21l-39 97q-10 25 -31.5 39.5t-48.5 14.5h-285q-26 0 -48 -14.5t-32 -39.5l-39 -97l-123 -21q-31 -5 -51.5 -28.5t-20.5 -55.5v-426q0 -35 25 -60t61 -25h742q35 0 60 25t25 60v426q0 32 -20 55.5
t-51 28.5zM909 3q0 -11 -8 -19.5t-20 -8.5h-742q-12 0 -20.5 8.5t-8.5 19.5v426q0 11 7 19t17 9l155 26l51 127q8 18 27 18h285q20 0 27 -18l51 -127l155 -26q11 -1 17.5 -9t6.5 -19v-426z" />
    <glyph glyph-name="uniE61B" unicode="&#xe61b;" 
d="M511 114q5 2 24 21l129 127q41 37 41 79q0 44 -28 74.5t-69 30.5q-12 0 -24.5 -7t-21 -16t-16 -20t-10.5 -16l-3 -7l-22 -50l-22 49q-10 22 -30.5 44.5t-44.5 22.5q-41 0 -69 -30.5t-28 -74.5q0 -23 8.5 -43t13.5 -26t9 -10h1l138 -127v-1q19 -18 24 -20zM511 90
q-14 0 -41 27l-137 127q-5 3 -11.5 10.5t-18 33t-11.5 53.5q0 53 35 91t87 38q17 0 33 -8t27 -20t20 -24t13 -20l4 -9q1 4 4 9.5t12.5 19.5t20 24.5t27 19t33.5 8.5q52 0 87 -38t35 -91q0 -52 -49 -97l-129 -127q-27 -27 -41 -27v0zM511 -145q-91 0 -173.5 35.5t-142 95
t-94.5 142t-35 173t35.5 173t95.5 142t142.5 95t171.5 35.5t171.5 -36t142.5 -96t95.5 -142.5t35.5 -171.5t-35 -171t-94.5 -142t-142.5 -96t-173 -36zM511 721q-115 0 -212 -56t-153 -153t-56 -211.5t56 -211.5t153 -153.5t211.5 -56.5t211.5 56.5t153.5 153.5t56.5 211.5
t-56.5 211.5t-153.5 153t-211 56z" />
    <glyph glyph-name="uniE61C" unicode="&#xe61c;" 
d="M342 149q-106 0 -159.5 14t-53.5 53q0 34 44 66t107 44q6 4 8 19q-7 3 -9 10q-7 13 -17 32q-9 15 -13 23t-7 21.5t-3 28.5q0 50 28.5 81.5t74.5 31.5q45 0 74 -32.5t29 -82.5q0 -33 -12 -63.5t-33 -50.5q-5 -6 -4 -12q2 -6 8 -8q63 -12 107 -43.5t44 -65.5
q0 -39 -53.5 -52.5t-159.5 -13.5zM309 375q13 -7 15 -23q2 -18 -8 -37.5t-28 -23.5q-51 -10 -86.5 -34t-35.5 -41q0 -3 2 -6t12.5 -8t28 -8.5t52.5 -6t81 -2.5q45 0 79 2.5t52 5.5t28.5 7.5t13.5 8t3 6.5q0 17 -35.5 40.5t-86.5 33.5q-27 6 -34 32q-8 27 12 48q35 34 35 89
q0 35 -18.5 57t-48.5 22q-31 0 -49 -21t-18 -56q0 -16 4 -26t15 -29zM852 488h-243q-7 0 -12.5 5.5t-5.5 13t5.5 13t12.5 5.5h243q8 0 13 -5.5t5 -13t-5 -13t-13 -5.5zM852 391h-243q-7 0 -12.5 5.5t-5.5 13t5.5 13t12.5 5.5h243q8 0 13 -5.5t5 -13t-5 -13t-13 -5.5z
M658 -46h-292q-7 0 -12.5 5t-5.5 12.5t5.5 13t12.5 5.5h292q7 0 12.5 -5.5t5.5 -13t-5.5 -12.5t-12.5 -5zM730.5 -119q-7.5 0 -13 5t-5.5 13v146q0 7 5.5 12.5t13 5.5t13 -5.5t5.5 -12.5v-146q0 -8 -5.5 -13t-13 -5zM293.5 -119q-7.5 0 -13 5t-5.5 13v146q0 7 5.5 12.5
t13 5.5t13 -5.5t5.5 -12.5v-146q0 -8 -5.5 -13t-13 -5zM952 -46h-148q-8 0 -13.5 5t-5.5 12.5t5.5 13t13.5 5.5h148q4 0 4 6v681q-2 5 -4 6h-875q-3 0 -6 -2t-3 -4v-681q0 -2 3 -4t6 -2h143q8 0 13.5 -5.5t5.5 -13t-5.5 -12.5t-13.5 -5h-143q-18 0 -31.5 12.5t-13.5 29.5
v681q0 17 13.5 29.5t31.5 12.5h875q17 0 28.5 -12t11.5 -30v-681q0 -18 -11.5 -30t-28.5 -12z" />
    <glyph glyph-name="uniE61D" unicode="&#xe61d;" 
d="M736 364h-512q-13 0 -22.5 -9.5t-9.5 -22.5t9.5 -22.5t22.5 -9.5h512q13 0 22.5 9.5t9.5 22.5t-9.5 22.5t-22.5 9.5zM480 812q-98 0 -186.5 -38t-153 -102.5t-102.5 -153t-38 -186.5t38 -186.5t102.5 -153t153 -102.5t186.5 -38t186.5 38t153 102.5t102.5 153t38 186.5
t-38 186.5t-102.5 153t-153 102.5t-186.5 38zM480 -84q-172 0 -294 122t-122 294t122 294t294 122t294 -122t122 -294t-122 -294t-294 -122z" />
    <glyph glyph-name="uniE61E" unicode="&#xe61e;" 
d="M701 363q-95 0 -162 -67.5t-67 -162.5t67 -162t162 -67t162.5 67t67.5 162t-67.5 162.5t-162.5 67.5zM701 -56q-78 0 -133.5 55.5t-55.5 134t55.5 134t133.5 55.5t133.5 -55.5t55.5 -134t-55.5 -134t-133.5 -55.5zM787 239l-86 -86l-39 39q-9 9 -18.5 0t-0.5 -19l48 -49
v0q1 0 1 -1h1v-1h1v0q1 0 1 -1h1v0h1h1v-1h1h1h2h1h1q0 1 1 1h1q1 0 1 1h1l1 1l1 1l96 96q10 10 0.5 19.5t-19.5 -0.5zM447 53h-257q-15 0 -25.5 11t-10.5 26v439q0 14 10.5 25t25.5 11h72v-33q0 -8 6 -14t14 -6t14 6t6 14v33h136v-33q0 -8 5.5 -14t14 -6t14.5 6t6 14v33
h135v-33q0 -8 6 -14t14.5 -6t14 6t5.5 14v33h72q15 0 25.5 -11t10.5 -25v-132q0 -8 6 -14t14.5 -6t14 6t5.5 14v132q0 31 -22 53.5t-54 22.5h-72v47q0 8 -5.5 14t-14 6t-14.5 -6t-6 -14v-47h-135v47q0 8 -6 14t-14.5 6t-14 -6t-5.5 -14v-47h-136v47q0 8 -6 14t-14 6t-14 -6
t-6 -14v-47h-72q-31 0 -53.5 -22.5t-22.5 -53.5v-439q0 -32 22.5 -54.5t53.5 -22.5h257q8 0 14 6t6 14.5t-6 14t-14 5.5zM282 447q-25 0 -43 -18t-18 -43.5t18 -43.5t43 -18t43 18t18 43.5t-18 43.5t-43 18zM282 351q-14 0 -24.5 10t-10.5 24.5t10.5 24.5t24.5 10t24.5 -10
t10.5 -24.5t-10.5 -24.5t-24.5 -10zM396 385.5q0 -25.5 18 -43.5t43.5 -18t43.5 18t18 43.5t-18 43.5t-43.5 18t-43.5 -18t-18 -43.5zM492 385.5q0 -14.5 -10 -24.5t-24.5 -10t-24.5 10t-10 24.5t10 24.5t24.5 10t24.5 -10t10 -24.5zM633 420q12 0 22 -7.5t12 -19.5
q1 -6 6 -9t10 -2t8 6t2 10q-4 21 -21 35t-39 14q-25 0 -43 -18t-18 -44q0 -10 3 -20q4 -9 13 -9q2 0 5 1q12 4 8 17q-2 6 -2 11q0 15 10 25t24 10zM282 256q-25 0 -43 -18t-18 -43.5t18 -43.5t43 -18t43 18t18 43.5t-18 43.5t-43 18zM282 160q-14 0 -24.5 10t-10.5 24.5
t10.5 24.5t24.5 10t24.5 -10t10.5 -24.5t-10.5 -24.5t-24.5 -10zM458 256q-26 0 -44 -18t-18 -44q0 -19 11 -35t29 -22q3 -1 5 -1q9 0 13 9q4 12 -8 17q-23 8 -23 32q0 15 10 25t25 10q5 0 9 4t4 9.5t-4 9.5t-9 4z" />
    <glyph glyph-name="uniE61F" unicode="&#xe61f;" 
d="M510 746q-95 0 -176 -47t-128 -128t-47 -176q0 -53 34 -127t76 -136t97.5 -131t79.5 -95t41 -44q9 -10 23 -10t24 11l109 125q218 267 218 407q0 95 -47 176t-128 128t-176 47v0zM510 235q-66 0 -113 47t-47 113t47 112.5t113 46.5t112.5 -46.5t46.5 -112.5t-46.5 -113
t-112.5 -47v0zM510 235z" />
    <glyph glyph-name="uniE620" unicode="&#xe620;" 
d="M684 -68q-81 0 -138 57t-57 138t57 138t138 57t138 -57t57 -138t-57 -138t-138 -57zM684 276q-62 0 -105.5 -43.5t-43.5 -105.5t43.5 -105.5t105.5 -43.5t105.5 43.5t43.5 105.5t-43.5 105.5t-105.5 43.5zM776 92h-115q-5 0 -8 3.5t-3 8.5v23v92q0 4 3 7.5t8 3.5h23
q5 0 8 -3.5t3 -7.5v-81h81q4 0 7.5 -3t3.5 -8v-23q0 -5 -3.5 -8.5t-7.5 -3.5zM764 597q0 9 -6.5 16t-16.5 7h-527q-10 0 -16.5 -7t-6.5 -16v-596q0 -10 6.5 -16.5t16.5 -6.5h229v-46h-252q-19 0 -32.5 13.5t-13.5 32.5v642q0 19 13.5 32.5t32.5 13.5h573q19 0 32.5 -13.5
t13.5 -32.5v-207h-46v184zM317 161h92q5 0 8 -3t3 -8v-23q0 -5 -3 -8.5t-8 -3.5h-92q-5 0 -8 3.5t-3 8.5v23q0 5 3 8t8 3zM306 448v23q0 4 3 7.5t8 3.5h344q5 0 8 -3.5t3 -7.5v-23q0 -5 -3 -8.5t-8 -3.5h-344q-5 0 -8 3.5t-3 8.5zM306 287v23q0 5 3 8.5t8 3.5h161
q4 0 7.5 -3.5t3.5 -8.5v-23q0 -4 -3.5 -7.5t-7.5 -3.5h-161q-5 0 -8 3.5t-3 7.5zM306 287z" />
    <glyph glyph-name="uniE621" unicode="&#xe621;" 
d="M918 544q-55 4 -103 20q-15 4 -31 10q-34 10 -83 36l-1 1q-12 6 -24 13q-15 9 -33 20h-1v1q-12 8 -23 15q-4 3 -15 11q-1 1 -5 4t-6 4q-43 32 -80 68q-37 -36 -80 -68q-2 -1 -6 -4t-5 -4q-11 -8 -15 -11q-11 -7 -23 -15v-1h-1q-18 -11 -33 -20q-12 -7 -24 -13q0 -1 -1 -1
q-49 -26 -83 -36q-16 -6 -30 -10q-49 -16 -104 -20q1 -8 3 -61h1q13 -180 50 -282q0 -2 1.5 -5t1.5 -5l1 -1q1 -2 1 -3q47 -122 126 -206.5t177 -116.5v-1q22 -7 43 -11q21 4 44 11v1q97 32 176 116.5t126 206.5q1 1 1 3l1 1q1 2 2 5t1 5q37 102 50 282h1q3 53 3 61z
M871 502l-1 -9q-1 -3 -1 -7q-12 -174 -47 -271q-1 -2 -2 -6l-2 -4q0 -2 -1 -3q-44 -113 -116 -191t-159 -107l-6 -2q-12 -4 -23 -6q-11 2 -23 6l-6 2q-87 29 -159 107t-116 190q0 2 -1 5q-1 0 -2 3q-1 4 -2 6q-35 97 -47 271q0 4 -1 7l-1 9v5q38 5 70 16q15 4 32 10
q38 12 90 40q1 0 2 1q12 6 25 14q15 9 34 21q1 0 1 1q13 8 24 16q5 3 14 9l3 2l4 3q5 4 7 6q27 20 52 42q25 -22 52 -42q3 -2 8 -6l4 -3l1 -1q10 -7 14 -10l24 -16l2 -1q19 -12 34 -21q13 -8 25 -14q1 -1 2 -1q52 -28 91 -40q16 -6 30 -10q33 -11 71 -16v-5zM711 400
l-234 -240l-120 123q-6 7 -15 7t-15 -6.5t-6 -15.5t6 -16l135 -138q6 -6 15 -6t15 6l249 256q7 6 7 15t-6.5 15.5t-15.5 6.5t-15 -7z" />
    <glyph glyph-name="uniE622" unicode="&#xe622;" 
d="M512.5 811q-103.5 0 -198.5 -40.5t-163.5 -109t-109 -163.5t-40.5 -198.5t40.5 -198.5t109 -163.5t163.5 -109t198.5 -40.5t198.5 40.5t163.5 109t109 163.5t40.5 198.5t-40.5 198.5t-109 163.5t-163.5 109t-198.5 40.5zM512.5 -130q-116.5 0 -215.5 57.5t-156.5 156.5
t-57.5 215.5t57.5 215.5t156.5 156.5t215.5 57.5t215.5 -57.5t156.5 -156.5t57.5 -215.5t-57.5 -215.5t-156.5 -156.5t-215.5 -57.5zM676 463l-239 -239l-88 87q-12 12 -29 12t-29 -12t-12 -29t12 -29l117 -117q12 -12 29 -12t29 12l268 268q12 12 12 29.5t-12 29.5t-29 12
t-29 -12z" />
    <glyph glyph-name="uniE623" unicode="&#xe623;" horiz-adv-x="1061" 
d="M178 -178q-19 0 -35 17l-112 111q-15 15 -15 36q0 19 11 31l4 3l336 260q6 5 5 11v4l1 3q2 13 17 37l3 5l4 3q34 24 64 -5l24 -25l14 14q5 5 0 11l-249 256l164 164l54 -56l81 81q13 13 32 13q6 0 12 -1l8 -2l446 -446q10 -9 10 -24q0 -19 -15 -34l-150 -149
q-14 -15 -33 -15h-11l-454 450q-11 11 -9.5 28t14.5 30l30 30l-16 18l-87 -87l211 -218q18 -18 18 -43.5t-18 -43.5l-14 -14l23 -23q15 -14 15 -35q0 -15 -8 -27l-4 -6l-6 -3q-11 -7 -27 -14l-7 -3h-9q-10 2 -17 -7l-269 -317q-17 -18 -36 -18zM73 -15l105 -105l264 312
q23 28 57 27l1 1h2l-73 74q-1 -3 -3 -5q0 -29 -25 -51zM444 602l419 -415l134 134l-417 417z" />
    <glyph glyph-name="uniE624" unicode="&#xe624;" 
d="M512 735q87 0 167.5 -35t139 -93.5t93.5 -139t35 -167.5t-35 -167.5t-93.5 -139t-139 -93.5t-167.5 -35t-167.5 35t-139 93.5t-93.5 139t-35 167.5t35 167.5t93.5 139t139 93.5t167.5 35zM512 812q-138 0 -256 -69t-187 -187t-69 -256t69 -256t187 -187t256 -69t256 69
t187 187t69 256t-69 256t-187 187t-256 69zM576 364h-192v-64h64v-192h-64v-64h256v64h-64v256zM512 492zM448 492q0 26 19 45t45 19t45 -19t19 -45t-19 -45t-45 -19t-45 19t-19 45z" />
    <glyph glyph-name="uniE625" unicode="&#xe625;" 
d="M710 750h-394q-34 0 -59 -25t-25 -60v-730q0 -35 25 -60t59 -25h394q35 0 59.5 25t24.5 60v730q0 35 -24.5 60t-59.5 25zM401 707h224v-28h-224v28zM513 -93q-23 0 -39.5 16.5t-16.5 39.5t16.5 39.5t39.5 16.5t39.5 -16.5t16.5 -39.5t-16.5 -39.5t-39.5 -16.5zM738 75
h-450v562h450v-562z" />
    <glyph glyph-name="uniE626" unicode="&#xe626;" 
d="M513 746q-91 0 -174 -35.5t-142.5 -95t-95 -142.5t-35.5 -174t35.5 -174t95 -142.5t142.5 -95t174 -35.5t174 35.5t142.5 95t95 142.5t35.5 174t-35.5 174t-95 142.5t-142.5 95t-174 35.5zM511 -90q-106 0 -196 52.5t-142 142t-52 195.5t52 196t142 142t196 52t195.5 -52
t142 -142t52.5 -196t-52.5 -195.5t-142 -142t-195.5 -52.5zM360 459zM308 458.5q0 21.5 15.5 37t37 15.5t37 -15.5t15.5 -37t-15.5 -36.5t-37 -15t-37 15t-15.5 36.5zM661 459zM609 458.5q0 21.5 15.5 37t37 15.5t37 -15.5t15.5 -37t-15.5 -36.5t-37 -15t-37 15t-15.5 36.5z
M353 83q17 0 24 15q20 38 57.5 61t81.5 23t81.5 -23t57.5 -61q7 -15 23 -15t23.5 13t0.5 27q-27 52 -77 83t-110.5 31t-111 -31t-77.5 -83q-7 -14 1 -27t23 -13h3z" />
    <glyph glyph-name="uniE627" unicode="&#xe627;" 
d="M343 269q-1 -2 -1 -3l-45 -165q-4 -15 7 -27q8 -8 20 -8q4 0 7 1l164 45h1v-1q3 0 5 2l438 438q20 21 20 51q0 34 -25 59l-42 42q-25 25 -60 25q-30 0 -50 -20l-438 -438q0 -1 -1 -1zM896 594l-43 -43l-71 72l43 42q5 5 13.5 4.5t14.5 -6.5l41 -41q7 -7 7 -16
q0 -7 -5 -12zM421 262l316 316l71 -72l-315 -315zM364 134l23 83l61 -60zM924 421q-13 0 -21.5 -9t-8.5 -22v-408q0 -16 -11.5 -27.5t-27.5 -11.5h-691q-16 0 -27.5 11.5t-11.5 27.5v667q0 16 11.5 27t27.5 11h445q12 0 21 9t9 21.5t-9 21.5t-21 9h-450q-39 0 -66.5 -28
t-27.5 -67v-676q0 -39 27.5 -66.5t66.5 -27.5h700q39 0 67 27.5t28 66.5v414q0 12 -9 21t-21 9z" />
    <glyph glyph-name="uniE628" unicode="&#xe628;" 
d="M557 267q48 31 83.5 92t35.5 131q0 107 -69.5 183t-168 76t-168.5 -76t-70 -183q0 -75 36.5 -137.5t98.5 -94.5q8 -5 9 -5q31 -17 31 -40q0 -22 -23 -29q-4 -1 -13 -4q-14 -3 -19 -6l-3 -1q-111 -39 -177.5 -124.5t-66.5 -190.5v-15h466v31h-435q5 91 66.5 164.5
t160.5 106.5l10 4q1 0 3 1h2h2q7 3 13 4q45 14 45 59q0 41 -47 68q-2 0 -9 4q-54 28 -86 84t-32 121q0 95 60.5 161.5t146 66.5t146 -66.5t60.5 -161.5q0 -62 -31.5 -116t-73.5 -81q-29 -19 -42 -34t-13 -36q0 -32 25 -49t53 -20l3 31q-2 0 -5.5 0.5t-12 3.5t-15.5 6.5
t-12 11t-5 16.5t8 18t33 26zM600 -5h348v-31h-348v31zM600 115h348v-31h-348v31zM600 -126h348v-31h-348v31z" />
    <glyph glyph-name="uniE629" unicode="&#xe629;" 
d="M247 -184h-146q-30 0 -51.5 21t-21.5 51v842q0 30 21.5 51.5t51.5 21.5h766q30 0 51 -21.5t21 -51.5v-210q0 -10 -6.5 -16.5t-16 -6.5t-16 6.5t-6.5 16.5v210q0 11 -8 19.5t-19 8.5h-766q-12 0 -20 -8t-8 -20v-842q0 -11 8 -19t20 -8h146q9 0 16 -6.5t7 -16t-7 -16
t-16 -6.5zM745 620h-570q-10 0 -16.5 6.5t-6.5 16t6.5 16t16.5 6.5h570q10 0 16.5 -6.5t6.5 -16t-6.5 -16t-16.5 -6.5zM438 382h-263q-10 0 -16.5 7t-6.5 16t6.5 15.5t16.5 6.5h263q9 0 15.5 -6.5t6.5 -16t-6.5 -16t-15.5 -6.5zM621 501h-446q-10 0 -16.5 6.5t-6.5 16
t6.5 16t16.5 6.5h446q9 0 15.5 -6.5t6.5 -16t-6.5 -16t-15.5 -6.5zM400 -198q-10 0 -17 7q-8 10 -5 22l41 146q1 6 6 10l409 409q10 11 25 11t26 -11l97 -98q11 -10 11 -25t-11 -26l-53 -53q-7 -7 -16 -7t-16 7l-66 66q-7 6 -7 15.5t7 16t16 6.5t16 -7l50 -50l32 32l-86 85
l-398 -398l-30 -107l116 22l231 232q7 7 18 16.5t37.5 24t52.5 16.5q9 0 16 -6t7.5 -15.5t-5.5 -16.5t-15 -7q-38 -3 -78 -43l-1 -1l-236 -237q-5 -5 -12 -6l-158 -30h-4z" />
    <glyph glyph-name="uniE62A" unicode="&#xe62a;" 
d="M582 551l-70 41l-264 -152v-305l264 -152l264 152v305zM683 362h-25l-111 -222h-62l-111 222h-24v25h74l92 -185l93 185h74v-25zM683 367z" />
    <glyph glyph-name="uniE62B" unicode="&#xe62b;" 
d="M910 388l-265 38l-119 241l-119 -241l-265 -38l192 -188l-45 -264l237 124l237 -124l-45 264zM526 119l-168 -89l31 188l-136 133l189 27l84 171l84 -171l188 -27l-136 -133l32 -188z" />
    <glyph glyph-name="uniE62C" unicode="&#xe62c;" 
d="M512 -212q-139 0 -257 68.5t-186.5 186.5t-68.5 257t68.5 257t186.5 186.5t257 68.5t257 -68.5t186.5 -186.5t68.5 -257t-68.5 -257t-186.5 -186.5t-257 -68.5zM512 755q-93 0 -177 -36t-145 -97t-97 -145t-36 -177t36 -177t97 -145t145 -97t177 -36t177 36t145 97
t97 145t36 177t-36 177t-97 145t-145 97t-177 36zM853 101h-57q0 59 -41.5 100.5t-100.5 41.5t-100.5 -41.5t-41.5 -100.5h-57q0 57 29.5 104t77.5 73q-50 43 -50 107q0 59 41.5 101t100.5 42t100.5 -42t41.5 -101q0 -65 -50 -107q49 -26 78 -73t29 -104zM654.5 471
q-35.5 0 -60.5 -25t-25 -60.5t25 -60.5t60.5 -25t60.5 25t25 60.5t-25 60.5t-60.5 25zM199 300h256v-57h-256v57zM199 442h256v-57h-256v57zM398 101h-199v57h199v-57z" />
    <glyph glyph-name="uniE62D" unicode="&#xe62d;" 
d="M973 289q-2 94 -44 161q-34 54 -93 88q-66 38 -132 42h-385q-95 -11 -159 -61q-51 -41 -80 -104q-32 -72 -29 -141v-1q8 -91 54 -155q36 -52 94 -84q66 -36 130 -38h370q96 10 161 58q52 39 81 100q34 69 32 135zM682.5 29q-107.5 0 -184 76.5t-76.5 184.5t76.5 184.5
t184 76.5t184 -76.5t76.5 -184.5t-76.5 -184.5t-184 -76.5z" />
    <glyph glyph-name="uniE62E" unicode="&#xe62e;" 
d="M973 287q-2 94 -44 161q-35 54 -93 88q-66 39 -132 43h-385q-95 -11 -159 -62q-52 -40 -80 -104q-32 -72 -30 -140v-1q9 -91 54 -156q37 -51 95 -83q66 -36 129 -39h371q95 10 160 58q52 39 82 100q33 69 32 135zM213 60q-118 65 -132 214q-1 64 27 128q58 128 213 146
h49h14q9 0 33.5 -3.5t47.5 -10t52 -22t52 -36.5q69 -67 69 -188q-1 -62 -34 -124q-67 -126 -229 -139h-45q-59 3 -117 35zM913 164q-60 -122 -217 -139h-197q24 11 44 25q55 38 88 100q37 69 38 137q0 135 -79 211q-32 30 -75 50h187q60 -5 118 -38q119 -69 122 -223
q1 -60 -29 -123z" />
    <glyph glyph-name="uniE62F" unicode="&#xe62f;" 
d="M510 88q-14 0 -26.5 8.5t-31.5 28.5l-231 234q-3 3 -12.5 14.5t-12.5 16t-10.5 15t-10.5 18t-7.5 19t-6 23t-1.5 25.5q0 78 53.5 132t131.5 54q59 0 109 -35q19 -13 6 -30q-6 -6 -15.5 -5.5t-17.5 6.5q-37 26 -82 26q-65 0 -107.5 -44t-42.5 -104q0 -32 9.5 -52t34.5 -51
l235 -244q16 -16 36 -16q14 -1 31 16q190 177 243 242q46 57 46 109q0 58 -46 104t-105 46q-24 0 -53.5 -10t-50.5 -30l-94 -94q-22 -22 -35 -13q-7 6 -6 15t8 17q73 77 100 100q58 50 128 50q78 0 133.5 -55.5t55.5 -133.5q0 -33 -20 -72.5t-37 -56.5
q-48 -52 -122.5 -126.5t-119.5 -112.5q-4 -3 -12 -10.5t-11.5 -10t-9.5 -6.5t-11 -5.5t-12 -1.5v0zM510 88z" />
    <glyph glyph-name="uniE630" unicode="&#xe630;" 
d="M291 580v-60h416v60q0 12 -9 20.5t-21 8.5h-89q1 34 1 86q0 36 -27 64t-64 28t-63 -27t-26 -65v-86h-89q-12 0 -20.5 -8.5t-8.5 -20.5zM498 698q12 0 20.5 -8.5t8.5 -21t-8.5 -21t-20.5 -8.5t-21 8.5t-9 21t9 21t21 8.5zM261 -103q-12 0 -21 8.5t-9 21.5v682q0 13 9 21.5
t21 8.5h120v59h-150q-24 0 -41.5 -17.5t-17.5 -41.5v-742q0 -24 17.5 -41.5t41.5 -17.5h287q7 49 10 59h-267zM766 609v-394l59 -60v484q0 24 -18 41.5t-43 17.5h-146v-59h118q13 0 21.5 -8.5t8.5 -21.5zM759 -150l159 162l-159 160v-91q-30 0 -57 -6t-55.5 -23t-49 -44
t-33.5 -73t-13 -106q10 33 32.5 57.5t48 34.5t52 16.5t45 5t27.5 -0.5h3v-92z" />
    <glyph glyph-name="uniE631" unicode="&#xe631;" 
d="M28 243l56 -29q3 -2 7.5 -3.5t15 1.5t16.5 15l139 290q1 2 3 6.5t0 14.5t-11 15l-61 30q-19 10 -32 -12q0 -4 -35.5 -78t-71.5 -145l-35 -72q-9 -24 9 -33zM943 213l57 27q1 0 2.5 1t6 4.5t6 7.5t3 10.5t-3.5 14.5l-143 288q0 1 -1 2l-4 6q-3 5 -7 6.5t-9.5 3.5t-12.5 -2
l-61 -30q-2 -1 -4.5 -3t-7 -10t1.5 -18q3 -3 39.5 -76.5t70.5 -146.5l35 -72q1 -2 3.5 -5t11 -8t17.5 0zM164 214l19 40l66 -83q5 1 12.5 2t23.5 -3t22 -16q2 -2 4 -5.5t5 -16t-1 -26.5q9 -6 10 -10q30 7 47 -14q2 -2 5 -4.5t7 -12.5t3 -22q12 -5 14 -12q29 8 43 -9
q2 -2 5 -5.5t7.5 -12.5t3.5 -17l27 -20q26 -2 30 -22l24 -18q2 -1 4.5 -1.5t9 -1t12 1t10 8t5.5 16.5l-91 70q-1 1 -1.5 3t-0.5 6.5t2 7.5t7.5 5.5t15.5 0.5l135 -95q23 -10 36 11q13 19 -6 38l-144 105q0 1 -1 3t-1.5 7t1 8.5t7 6t14.5 2.5l171 -122q25 -9 35 9q14 18 0 37
l-189 138q-1 1 -1 3t-0.5 7.5t2 8.5t7.5 6t16 -1l195 -139q3 -1 8.5 -2t17 2.5t17.5 14.5q1 3 3.5 8t1.5 17.5t-11 21.5l-276 241q-2 1 -5.5 2t-14 2.5t-20.5 0t-21.5 -9.5t-20.5 -22q0 -3 -1 -9t-7 -21t-15.5 -27.5t-29 -24.5t-45.5 -17q-1 0 -3.5 0.5t-9 1.5t-11.5 3
t-12 5.5t-9.5 8.5t-5 12t1.5 16q2 2 5.5 7.5t8 25.5t3.5 43q3 37 28 69h-99l22 45h150q7 4 18.5 9.5t40 14.5t49.5 8q60 -4 77 -13q9 -3 23 -7t45.5 -9.5t47.5 -2.5l134 -279l-21 -48q1 -2 3.5 -5t8 -12.5t8 -19.5t0.5 -24.5t-10 -28.5q-15 -31 -63 -34q6 -33 -18 -51
q-2 -3 -6 -6.5t-19.5 -8.5t-34.5 -3q3 -29 -25 -48q-4 -3 -11 -7t-29 -3t-45 16q-1 -4 -3.5 -9.5t-15 -16t-31.5 -13.5q-30 -5 -47 12q-1 -3 -3.5 -6.5t-10.5 -12t-16.5 -13t-21 -4t-24.5 9.5q-1 1 -3 2.5t-6 7.5t-5.5 12.5t-0.5 15.5t6 19q-1 -3 -4 -6.5t-12 -11.5
t-18.5 -12t-23 -1t-25.5 16q-1 0 -2.5 1.5t-4.5 7t-4.5 12t0.5 16.5t9 21l-5 -5q-2 -2 -10.5 -7t-17 -7t-20.5 1.5t-23 13.5q-1 1 -2.5 3t-5 8t-5 12.5t0 17.5t7.5 22q-2 -1 -4.5 -4t-11 -8t-17.5 -7t-22 2t-25 15q-2 2 -4 6t-6 17.5t3 30.5l41 57z" />
    <glyph glyph-name="uniE632" unicode="&#xe632;" 
d="M948 117l-404 385q-13 14 -32 14t-31 -14l-405 -385q-11 -12 -10.5 -29.5t13 -29t30 -11t29.5 13.5l374 356l375 -356q11 -13 28.5 -13.5t30 11t13.5 29t-11 29.5z" />
    <glyph glyph-name="uniE633" unicode="&#xe633;" 
d="M499 467q20 0 32 12t12 32t-12 32t-32 12q-21 0 -37 -12.5t-16 -31.5t16 -31.5t37 -12.5zM253 555q-21 0 -37 -12.5t-16 -31.5t16 -31.5t37 -12.5q20 0 32 12t12 32t-12 32t-32 12zM1024 186q0 104 -84 182t-203 87v6q-24 111 -130 185t-240 74q-99 0 -184 -42
t-134 -114.5t-49 -158.5q0 -142 138 -243l-32 -94q-3 -10 5 -17q4 -4 10 -4q4 0 8 2l117 59l15 -3q68 -14 106 -14q17 0 34 1q7 1 11 6q33 -81 114.5 -132t183.5 -51q37 0 103 17l91 -50q3 -2 7 -2q6 0 11 3q8 7 5 18l-23 77q120 95 120 208zM399 124q-16 -1 -32 -1
q-35 0 -100 13l-20 4q-5 1 -10 -1l-88 -45l23 69q3 12 -6 19q-134 93 -134 223q0 77 45 142t122 103t168 38q123 0 219.5 -66t118.5 -166q-129 -1 -219.5 -80t-90.5 -190q0 -31 9 -63q-3 1 -5 1zM875 -4q-8 -6 -5 -17l15 -50l-62 34q-4 2 -8 2q-2 0 -4 -1q-67 -17 -101 -17
q-117 0 -200 70t-83 169t83 169t200 70q115 0 198.5 -71t83.5 -168q0 -49 -30 -98t-87 -92zM613 300q-13 0 -24 -11t-11 -24t11 -24t24 -11q19 0 31.5 10.5t12.5 24.5t-12.5 24.5t-31.5 10.5zM806 300q-13 0 -24 -11t-11 -24t11 -24t24 -11q19 0 31.5 10.5t12.5 24.5
t-12.5 24.5t-31.5 10.5z" />
    <glyph glyph-name="uniE634" unicode="&#xe634;" 
d="M148 37v485h693v-174q24 -13 43 -32v227q0 9 -6 15.5t-15 6.5h-737q-9 0 -15 -6.5t-6 -15.5v-528q0 -9 6 -15t15 -6h402q-15 20 -26 43h-354zM458 424h-253q-8 0 -14 -6t-6 -14.5t6 -14.5t14 -6h253q9 0 15 6t6 14.5t-6 14.5t-15 6zM458 300h-253q-8 0 -14 -6t-6 -14.5
t6 -14.5t14 -6h253q9 0 15 6t6 14.5t-6 14.5t-15 6zM458 176h-253q-8 0 -14 -6t-6 -14.5t6 -14.5t14 -6h253q9 0 15 6t6 14.5t-6 14.5t-15 6zM719.5 336q-81.5 0 -138.5 -57t-57 -138t57 -138.5t138.5 -57.5t138.5 57.5t57 138.5t-57 138t-138.5 57zM706 26q-8 -8 -19 -8
t-19 8l-90 88q-7 8 -7.5 19t7.5 19t19 8t19 -7l71 -70l133 133q8 8 19 8t19 -8t8 -19t-8 -19z" />
    <glyph glyph-name="uniE635" unicode="&#xe635;" 
d="M513.5 731q87.5 0 167.5 -33q77 -33 136 -92.5t92 -136.5q34 -80 34 -167t-34 -167q-33 -77 -92 -136.5t-136 -91.5q-80 -34 -167.5 -34t-166.5 34q-77 32 -136.5 91.5t-92.5 136.5q-34 80 -34 167t34 167q33 77 92.5 136.5t136.5 92.5q79 33 166.5 33zM514 752
q-92 0 -175 -35.5t-143.5 -96t-96 -143.5t-35.5 -174.5t35.5 -175t96 -143.5t143.5 -95.5t174.5 -35.5t175 35.5t143.5 95.5t95.5 143.5t35.5 175t-35.5 174.5t-95.5 143.5t-143.5 96t-174.5 35.5zM332 406q5 -69 57.5 -116.5t124 -47.5t124 47.5t57.5 116.5h16h24v19h-23
q-2 84 -59.5 142.5t-138.5 58.5t-138.5 -58.5t-59.5 -142.5h-24v-19h24h16zM627 310q-47 -46 -113.5 -46t-113.5 46q-41 40 -46 96h319q-5 -56 -46 -96zM397 556l21 -60l25 3l-26 73q44 31 97 31q52 0 95 -29l-27 -75l25 -3l22 62q56 -51 59 -128h-349q4 75 58 126zM608 250
v-30l-60 -100l-12 108h-47l-10 -108l-60 100v30q-70 -12 -124.5 -39t-82.5 -64q22 -75 106.5 -124t195 -49t195 49t106.5 124q-28 37 -82.5 64t-124.5 39zM698 43q-38 -22 -84 -34q-49 -12 -100.5 -12t-99.5 12q-47 12 -85 34q-68 40 -91 99q24 28 67 49q40 20 91 31v-2v-7
l3 -5l61 -100l35 -59l6 69l8 87h7l9 -88l7 -66l35 57l61 100l3 5v7v2q51 -11 91 -31q43 -22 68 -49q-23 -59 -92 -99z" />
    <glyph glyph-name="uniE636" unicode="&#xe636;" 
d="M361 597l10 -72l212 -143q23 -16 28.5 -43.5t-10.5 -50.5t-43.5 -28t-50.5 10l-212 143l-71 -17l-145 99q-14 10 -10.5 27.5t20.5 20.5l79 16q11 2 17 11t4 20l-14 79q-3 18 12 27.5t29 -0.5zM217 354l13 3q-2 -16 -2 -30q0 -86 43 -159.5t116 -116.5t159.5 -43t160 43
t116 116.5t42.5 159.5t-42.5 159.5t-116 116.5t-159.5 43q-78 0 -148 -37l-2 10l-62 43q98 61 212 61q107 0 198.5 -53t144.5 -144t53 -199t-53 -199t-144.5 -144t-199 -53t-198.5 53t-144 144t-53 199q0 32 6 68zM547 473q-13 0 -27 -2l-79 53q49 27 106 27
q93 0 158.5 -65.5t65.5 -158.5t-65.5 -158.5t-158.5 -65.5t-158.5 65.5t-65.5 158.5q0 9 1 20l81 -54q11 -49 51 -80.5t91 -31.5q60 0 103 42.5t43 103.5t-43 103.5t-103 42.5z" />
    <glyph glyph-name="uniE637" unicode="&#xe637;" 
d="M512 749q-94 0 -179 -36.5t-147 -98.5t-98.5 -147t-36.5 -179t36.5 -179t98.5 -147t147 -98.5t179 -36.5t179 36.5t147 98.5t98.5 147t36.5 179t-36.5 179t-98.5 147t-147 98.5t-179 36.5zM512 -119q-110 0 -204 54.5t-148.5 148.5t-54.5 204t54.5 204t148.5 148.5
t204 54.5t204 -54.5t148.5 -148.5t54.5 -204t-54.5 -204t-148.5 -148.5t-204 -54.5zM514 474q85 0 155.5 -47.5t106.5 -124.5h46q-38 96 -121.5 155.5t-186.5 59.5t-187 -59.5t-121 -155.5h45q36 77 106.5 124.5t156.5 47.5v0zM514 129q-86 0 -156.5 47.5t-106.5 125.5h-45
q37 -96 121 -156t187 -60t186.5 60t121.5 156h-46q-36 -78 -106.5 -125.5t-155.5 -47.5v0zM403 302q0 -48 32.5 -81.5t78.5 -33.5t78 33.5t32 81t-32 81.5t-78 34t-78.5 -34t-32.5 -81v0zM583 302q0 -30 -20.5 -51t-49 -21t-48.5 21t-20 51t20 51t48.5 21t49 -21t20.5 -51v0
zM583 302z" />
    <glyph glyph-name="uniE638" unicode="&#xe638;" 
d="M862 617q-16 14 -37 14h-4h-23q-60 0 -108 11q-24 6 -52 24t-54 39.5t-28 22.5q-14 9 -30 9t-30 -9l-4 -4q-5 -4 -12 -10.5t-16.5 -14.5t-21 -16.5t-24 -16.5t-26.5 -14.5t-27 -9.5q-48 -11 -109 -11h-23h-4q-21 0 -37 -14q-17 -16 -17 -39v-135q0 -101 18.5 -187
t46 -141.5t66 -100t70.5 -68t67 -40t49.5 -20.5t23.5 -6q5 -1 10 -1t10 1q9 2 23.5 6t50 20.5t67.5 40t70.5 68t66.5 100t46.5 141.5t18.5 187v135q0 23 -17 39zM825 443q0 -308 -171 -446q-66 -52 -128 -64q-6 1 -17 4t-41.5 17.5t-58.5 35t-62.5 61t-59 91.5t-41.5 129.5
t-17 171.5v135q11 -1 27 -1q68 0 122 13q33 8 70 31.5t58 42.5l20 20q9 -9 23.5 -22t54.5 -38.5t73 -33.5q54 -13 121 -13l27 1v-135zM694 471l-209 -208l-104 103q-10 10 -23.5 10t-23.5 -9.5t-10 -23.5t10 -23l121 -121q2 -3 5 -6q10 -10 25 -10q14 0 24 10q3 3 5 6
l227 226q10 9 10 22.5t-10 23.5t-23.5 10t-23.5 -10z" />
    <glyph glyph-name="uniE639" unicode="&#xe639;" 
d="M892 317q0 7 -1 13h1q-4 103 -56 190t-139 139t-190 56v16q0 7 -4.5 11.5t-11 4.5t-11.5 -4.5t-5 -11.5v-16q-102 -4 -189 -56t-139 -139t-56 -190h1q-1 -6 -1 -13v-3q0 -6 4.5 -11t11 -5t11.5 5t5 11q0 2 -1 3h1q1 46 33.5 77.5t78.5 31.5t78.5 -31.5t33.5 -77.5v-1v-2
q0 -6 5 -11t11.5 -5t11 5t4.5 11q0 5 1 13q4 38 31 65.5t64 32.5v-495q0 -20 -14 -34.5t-34 -14.5t-34 14.5t-14 34.5v-2v2q0 6 -4.5 11t-11 5t-11.5 -5t-5 -11v-2q1 -33 24.5 -56t55.5 -23q36 0 58 16.5t22 48.5v511q38 -5 65 -32.5t31 -65.5l1 -13q0 -6 4.5 -11t11 -5
t11.5 5t5 11v2l-1 1h1q1 46 33.5 77.5t78.5 31.5t78.5 -31.5t33.5 -77.5v-3q0 -6 4.5 -11t11.5 -5t11.5 5t4.5 11v3zM355 394q-20 30 -51.5 47t-68.5 17q-55 0 -96 -36q32 107 120 178.5t201 81.5q-39 -48 -63 -102q-27 -60 -42 -186zM491.5 458q-60.5 0 -102.5 -42
q13 96 36 148q25 55 66 113q42 -58 66 -113q24 -52 37 -148q-42 42 -102.5 42zM748 458q-37 0 -68.5 -17t-51.5 -47q-15 126 -42 186q-25 54 -63 102q113 -10 201 -81.5t120 -178.5q-41 36 -96 36z" />
    <glyph glyph-name="uniE63A" unicode="&#xe63a;" 
d="M384 347q0 13 -9.5 22.5t-22.5 9.5t-22.5 -9.5t-9.5 -22.5t9.5 -22.5t22.5 -9.5t22.5 9.5t9.5 22.5zM672 379q-13 0 -22.5 -9.5t-9.5 -22.5t9.5 -22.5t22.5 -9.5t22.5 9.5t9.5 22.5t-9.5 22.5t-22.5 9.5zM672 187q0 6 -4.5 10.5t-11 4.5t-11 -4.5t-5.5 -10.5
q0 -53 -37.5 -90.5t-90.5 -37.5t-90.5 37.5t-37.5 90.5q-2 14 -16 14t-16 -14v-1v-1v-1q1 -65 48 -111t112 -46q66 0 113 46.5t47 112.5v0v1zM895 346q-8 97 -60.5 178t-138 128t-184.5 47t-184.5 -47t-138 -128t-60.5 -178q-28 -6 -46.5 -28t-18.5 -51v-64q0 -29 18 -51
t46 -27v-2q0 -80 56.5 -136t135.5 -56h35q5 -14 17.5 -23t27.5 -9q20 0 34 14t14 34t-14 34t-34 14q-15 0 -27.5 -9t-17.5 -23h-35q-68 2 -111 46t-49 116q28 5 46 27t18 51v64q0 28 -17.5 50t-45.5 28q12 136 112.5 229t238.5 93t238.5 -93t112.5 -229q-27 -6 -45 -28
t-18 -50v-64q0 -33 23.5 -56.5t56.5 -23.5t56.5 23.5t23.5 56.5v64q0 29 -18.5 51t-46.5 28zM400.5 -37q6.5 0 11 -4.5t4.5 -11.5t-4.5 -11.5t-11 -4.5t-11.5 4.5t-5 11.5t5 11.5t11.5 4.5zM192 267v-64q0 -20 -14 -34t-34 -14t-34 14t-14 34v64q0 20 14 34t34 14t34 -14
t14 -34zM928 203q0 -20 -14 -34t-34 -14t-34 14t-14 34v64q0 20 14 34t34 14t34 -14t14 -34v-64z" />
    <glyph glyph-name="uniE63B" unicode="&#xe63b;" 
d="M0 513l512 256l512 -256l-512 -256zM512 -10l416 209l96 -48l-512 -257l-512 257l96 48zM512 172l416 208l96 -48l-512 -256l-512 256l96 48zM833 513l-321 161l-321 -161l321 -160z" />
    <glyph glyph-name="uniE63C" unicode="&#xe63c;" 
d="M585 200l-291 292l-73 -510h729l72 510zM950 565h-583l218 -219zM2 492v-73h206l13 73h-219zM44 273h137l13 73h-150v-73zM75 127h80l13 73h-93v-73z" />
    <glyph glyph-name="uniE63D" unicode="&#xe63d;" 
d="M299 346v121q0 88 62.5 150.5t150.5 62.5t150.5 -62.5t62.5 -150.5h40q0 105 -74 179t-179 74t-179 -74t-74 -179v-121h-54v-466h614v466h-520zM779 -80h-534v386h534v-386zM492 215h40v-204h-40v204z" />
    <glyph glyph-name="uniE63E" unicode="&#xe63e;" 
d="M890 545q-32 74 -89.5 131.5t-131.5 89.5q-78 32 -162.5 32t-161.5 -32q-74 -32 -131.5 -89.5t-89.5 -131.5q-33 -78 -33 -162.5t33 -161.5q32 -75 89.5 -132.5t131.5 -88.5q77 -33 161.5 -33t162.5 33q74 31 131.5 88.5t89.5 132.5q32 77 32 161.5t-32 162.5zM340 537
q23 0 39 -16.5t16 -39t-16 -39t-39 -16.5t-39 16.5t-16 39t16 39t39 16.5zM718 158q-7 -5 -16 -4t-15 9q-57 77 -180 77t-180 -77q-7 -9 -18 -9q-8 0 -14 4q-7 6 -8.5 15t4.5 17q36 48 94 72q54 23 122 23t122 -23q58 -24 94 -72q6 -8 4.5 -17t-9.5 -15zM674 426
q-23 0 -39.5 16.5t-16.5 39t16.5 39t39.5 16.5t39 -16.5t16 -39t-16 -39t-39 -16.5z" />
    <glyph glyph-name="uniE63F" unicode="&#xe63f;" 
d="M895 555q-32 76 -90 134t-133 90q-78 33 -163.5 33t-163.5 -33q-75 -32 -133 -90t-90 -134q-33 -78 -33 -163t33 -163q32 -76 90 -134t133 -90q78 -33 163.5 -33t163.5 33q75 32 133 90t90 134q33 78 33 163t-33 163zM340 548q23 0 39.5 -16.5t16.5 -39.5t-16.5 -39.5
t-39.5 -16.5t-39.5 16.5t-16.5 39.5t16.5 39.5t39.5 16.5zM727 257q-38 -50 -94 -79q-58 -29 -124.5 -29t-124.5 29q-57 29 -94 79q-6 8 -4.5 17t9 14.5t17 4.5t14.5 -9q32 -42 80 -66t102 -24t102.5 24t79.5 66q6 8 15 9t17 -4.5t9 -14.5t-4 -17zM677 436q-23 0 -39.5 16.5
t-16.5 39.5t16.5 39.5t39.5 16.5t39.5 -16.5t16.5 -39.5t-16.5 -39.5t-39.5 -16.5z" />
    <glyph glyph-name="uniE640" unicode="&#xe640;" 
d="M884 547q-31 75 -87.5 133t-130.5 90q-76 33 -159 33t-159 -33q-73 -32 -129.5 -90t-87.5 -133q-32 -78 -32 -163t32 -163q31 -75 87.5 -133t129.5 -90q76 -33 159 -33t159 33q74 32 130.5 90t87.5 133q32 78 32 163t-32 163zM343 539q23 0 38.5 -16t15.5 -39.5
t-15.5 -39.5t-38 -16t-38.5 16t-16 39.5t16 39.5t38 16zM702 204h-390q-9 0 -15.5 6.5t-6.5 16t6.5 16t15.5 6.5h390q9 0 15.5 -6.5t6.5 -16t-6.5 -16t-15.5 -6.5zM671 428q-22 0 -38 16t-16 39.5t16 39.5t38.5 16t38.5 -16t16 -39.5t-16 -39.5t-39 -16z" />
    <glyph glyph-name="uniE641" unicode="&#xe641;" horiz-adv-x="1056" 
d="M528 735q91 0 173.5 -35.5t142.5 -95.5t95.5 -142.5t35.5 -173.5t-35.5 -173.5t-95.5 -142.5t-142.5 -95.5t-173.5 -35.5t-173.5 35.5t-142.5 95.5t-95.5 142.5t-35.5 173.5t35.5 173.5t95.5 142.5t142.5 95.5t173.5 35.5zM528 799q-104 0 -198.5 -40.5t-163 -109
t-109 -163t-40.5 -198.5t40.5 -198.5t109 -163t163 -109t198.5 -40.5t198.5 40.5t163 109t109 163t40.5 198.5t-40.5 198.5t-109 163t-163 109t-198.5 40.5zM722 106h-388q-20 0 -34 14.5t-14 34.5v266q0 20 14 34.5t34 14.5h388q20 0 34 -14.5t14 -34.5v-266
q0 -20 -14 -34.5t-34 -14.5zM334 394v-230q0 -9 10 -9h368q10 0 10 9v230v-1l-1 -1l-176 -163q-7 -7 -17 -7t-17 7l-176 163l-1 1v1zM528 279l153 142h-306z" />
    <glyph glyph-name="uniE642" unicode="&#xe642;" 
d="M835 576l-60 63l-263 -275v0l-263 275l-60 -63l262 -276l-262 -276l60 -63l263 275v0l263 -275l60 63l-262 276z" />
    <glyph glyph-name="uniE643" unicode="&#xe643;" 
d="M896 896h-768q-53 0 -90.5 -37.5t-37.5 -90.5v-768q0 -53 37.5 -90.5t90.5 -37.5h768q53 0 90.5 37.5t37.5 90.5v768q0 53 -37.5 90.5t-90.5 37.5zM448 102l-237 237l90 90l147 -147l307 307l90 -90z" />
    <glyph glyph-name="uniE644" unicode="&#xe644;" 
d="M858 266l-203 118l203 117q26 15 33.5 43.5t-7.5 54.5t-43.5 33.5t-54.5 -7.5l-203 -117v234q0 30 -21 51t-51 21t-51 -21t-21 -51v-234l-203 117q-25 15 -54 7.5t-43.5 -33.5t-7 -54.5t33.5 -43.5l203 -117l-203 -118q-26 -15 -33.5 -43.5t7 -54t43.5 -33.5t54 7
l203 117v-234q0 -30 21 -51t51 -21t51 21t21 51v234l203 -117q26 -15 54.5 -7t43.5 33.5t7.5 54t-33.5 43.5z" />
    <glyph glyph-name="uniE645" unicode="&#xe645;" 
d="M512 640h-128v-128h-128v-128h128v-128h128v128h128v128h-128v128zM1001 7l-185 185q81 115 81 256q0 91 -35.5 174t-95.5 143t-143 95.5t-174.5 35.5t-174.5 -35.5t-143 -95.5t-95.5 -143t-35.5 -174.5t35.5 -174.5t95.5 -143t143 -95.5t174 -35.5q141 0 256 81
l185 -185q24 -23 56.5 -23t55.5 23t23 55.5t-23 56.5zM448 127q-87 0 -160.5 43t-116.5 117t-43 161t43 160.5t116.5 116.5t160.5 43t161 -43t117 -116.5t43 -160.5t-43 -161t-117 -117t-161 -43z" />
    <glyph glyph-name="uniE646" unicode="&#xe646;" horiz-adv-x="1025" 
d="M512 -85q-95 0 -182 37.5t-149.5 100t-100 149.5t-37.5 182t37.5 182t100 149.5t149.5 100t182 37.5t182 -37.5t149.5 -100t100 -149.5t37.5 -182t-37.5 -182t-100 -149.5t-149.5 -100t-182 -37.5zM512 821q-89 0 -169.5 -35t-139 -93.5t-93.5 -139t-35 -169.5t35 -169.5
t93.5 -139t139 -93.5t169.5 -35t169.5 35t139 93.5t93.5 139t35 169.5t-35 169.5t-93.5 139t-139 93.5t-169.5 35zM512 821zM718 134h-160q1 2 1 4q0 5 -4 9t-9 4q-2 0 -4 -1v80h-48v-80q-2 1 -4 1q-5 0 -8.5 -4t-3.5 -9v-4h-160q1 2 1 4q0 5 -4 9t-9 4q-2 0 -4 -1v192h-47
q8 4 8 13q0 6 -4 10.5t-10 4.5q-4 0 -6 -2l265 309q4 5 11.5 5t12.5 -5l265 -309q-3 2 -6 2q-6 0 -10.5 -4.5t-4.5 -10.5q0 -9 9 -13h-51v-192q-2 1 -4 1q-5 0 -9 -4t-4 -9q0 -2 1 -4v0zM574 166h128v192q2 -1 4 -1q5 0 8.5 4t3.5 9v4h32l-230 268l-230 -268h28v-4
q0 -5 3.5 -9t9.5 -4q2 0 3 1v-192h128v80q2 -1 4 -1q5 0 9 4t4 9q0 2 -1 4h80v-4q0 -5 3.5 -9t8.5 -4q2 0 4 1v-80zM574 166zM512 -116q-101 0 -193.5 40t-159.5 107t-107 159.5t-40 193.5t40 193.5t107 159.5t159.5 107t193.5 40t193.5 -40t159.5 -107t107 -159.5
t40 -193.5t-40 -193.5t-107 -159.5t-159.5 -107t-193.5 -40zM512 849q-95 0 -181 -36.5t-148.5 -99t-99 -148.5t-36.5 -181t36.5 -181t99 -148.5t148.5 -99t181 -36.5t181 36.5t148.5 99t99 148.5t36.5 181t-36.5 181t-99 148.5t-148.5 99t-181 36.5zM512 849z" />
    <glyph glyph-name="uniE647" unicode="&#xe647;" 
d="M953 419q-7 30 -23.5 49.5t-36.5 26.5t-41.5 8.5t-38.5 -5.5q-11 50 -42 78.5t-69 32t-77 -12t-66 -48.5q-23 48 -26 110q36 -2 66 -12q6 16 6 38t-6 38q-30 -10 -66 -12q2 43 10 80q-13 7 -31.5 7t-31.5 -7q8 -37 10 -80q-36 2 -66 12q-6 -16 -6 -38t6 -38q31 10 66 12
q-3 -62 -26 -110q-27 33 -66 48.5t-76.5 12t-69 -32t-42.5 -78.5q-16 7 -38 5.5t-41.5 -8.5t-36.5 -26.5t-24 -49.5q-9 -39 3.5 -76t33.5 -62t55.5 -66t55.5 -75q28 -46 37 -128q2 -18 9.5 -26t24.5 -8h223h222q17 0 24.5 8t9.5 26q9 82 38 128q20 34 54.5 75t56 66t34 62
t2.5 76zM285 111q-14 42 -39.5 86.5t-46.5 72.5t-34.5 59.5t-7.5 56.5q10 48 52 49q8 -40 37 -88t61.5 -104t46.5 -111q-31 -6 -69 -21zM405 142q-4 31 -15 64.5t-23.5 58.5t-24.5 53t-19.5 50.5t-7 48.5t11.5 50q12 26 35 37.5t46.5 7.5t41.5 -18q-12 -37 -8.5 -84
t12 -79.5t18.5 -83.5t11 -96q-17 -1 -78 -9zM541 151q1 45 11 96t18.5 83.5t11.5 79.5t-9 84q19 14 42 18t46 -7.5t35 -37.5q11 -24 11.5 -50t-7 -48.5t-19.5 -50.5t-24.5 -53t-23.5 -58.5t-15 -64.5q-61 8 -77 9zM738 111q-38 15 -68 21q14 55 46 111t61 104t37 88
q43 -1 53 -49q5 -25 -8.5 -56.5t-34 -59.5t-46.5 -72.5t-40 -86.5zM738 111z" />
    <glyph glyph-name="uniE648" unicode="&#xe648;" 
d="M512 896q-139 0 -257 -68.5t-186.5 -186.5t-68.5 -257t68.5 -257t186.5 -186.5t257 -68.5t257 68.5t186.5 186.5t68.5 257t-68.5 257t-186.5 186.5t-257 68.5zM789 346h-238v-237h-74v237h-241v74h242v242h73v-242h238v-74zM789 346z" />
    <glyph glyph-name="uniE649" unicode="&#xe649;" 
d="M510 724q21 0 40.5 -8.5t33.5 -23t22 -34t8 -40.5q0 -32 -16 -57.5t-42 -38.5q-10 -26 -10 -54q0 -31 11.5 -61.5t31 -55t46 -40t56.5 -15.5q26 0 49.5 12.5t42 32t31.5 44.5t19 49q-23 11 -37 33t-14 48q0 19 6.5 35t18.5 27.5t28 18.5t33.5 7t33.5 -7t27.5 -18.5
t18.5 -27.5t7 -35q0 -26 -14 -47.5t-36 -32.5q-4 -42 -12.5 -85.5t-21 -87t-29 -83.5t-37.5 -74q-69 -26 -143.5 -39.5t-153.5 -13.5t-153 13.5t-145 39.5q-20 34 -36.5 74t-29.5 83.5t-21.5 87t-12.5 85.5q-21 11 -34 32.5t-13 47.5q0 19 6.5 35t18 27.5t27 18.5t33 7
t33.5 -7t27.5 -18.5t18.5 -27.5t7 -35q0 -27 -14.5 -49t-36.5 -32q5 -25 18 -50t32 -45t42 -32.5t49 -12.5q30 0 56.5 15.5t46.5 40.5t31.5 56t11.5 62q0 29 -12 57q-23 14 -37.5 38.5t-14.5 54.5q0 21 8 40.5t22.5 34t33.5 23t40 8.5zM510 724z" />
  </font>
</defs>
</svg>
